# xmcd CD database file
#
# Track frame offsets:
#	150
#	18547
#	39032
#	61230
#	82289
#	100928
#	123201
#	140847
#	160013
#	177676
#	196405
#	210666
#	232634
#	236764
#	256664
#	274131
#	297705
#	299517
#	302972
#
# Disc length: 4519 seconds
#
# Revision: 0
# Processed by: cddbd v1.5.2PL0 Copyright (c) Steve Scherf et al.
# Submitted via: CDex 1.51
#
DISCID=1d11a513
DTITLE=Brad Paisley - 5th Gear
DYEAR=2007
DGENRE=Country
TTITLE0=All I Wanted Was A Car
TTITLE1=Ticks
TTITLE2=Online
TTITLE3=Letter To Me
TTITLE4=I'm Still A Guy
TTITLE5=Some Mistakes
TTITLE6=It Did
TTITLE7=Mr. Policeman
TTITLE8=If Love Was A Plane
TTITLE9=Oh Love (feat. Carrie Underwood)
TTITLE10=Better Than This
TTITLE11=With You, Without You
TTITLE12=Previously
TTITLE13=Bigger Fish To Fry
TTITLE14=When We All Get To Heaven
TTITLE15=Throttleneck
TTITLE16=Outtake #1
TTITLE17=Outtake #2
TTITLE18=You Love Me So Good (bonus track)
EXTD=YEAR: 2007
EXTT0=
EXTT1=
EXTT2=
EXTT3=
EXTT4=
EXTT5=
EXTT6=
EXTT7=
EXTT8=
EXTT9=
EXTT10=
EXTT11=
EXTT12=
EXTT13=
EXTT14=
EXTT15=
EXTT16=
EXTT17=
EXTT18=
PLAYORDER=
